<svg xmlns="http://www.w3.org/2000/svg" viewBox="0 0 69.44 46.61"><defs><style>.cls-1{fill:#6090c1;}</style></defs><title>資產 1</title><g id="圖層_2" data-name="圖層 2"><g id="圖層_1-2" data-name="圖層 1"><polygon class="cls-1" points="38.89 38.67 38.89 46.41 40.39 46.41 40.39 43.08 43.06 43.08 43.06 46.41 44.56 46.41 44.56 38.67 43.06 38.67 43.06 41.76 40.39 41.76 40.39 38.67 38.89 38.67"/><rect class="cls-1" x="45.47" y="38.67" width="1.51" height="7.74"/><rect class="cls-1" x="48.08" y="42.83" width="2.79" height="1.03"/><path class="cls-1" d="M54.63,40.56c-.22.57-.42,1.07-.57,1.58h0c-.18-.53-.36-1-.59-1.57l-.77-1.9H51l2.22,4.59v3.15h1.5v-3.2L57,38.67H55.39Z"/><polygon class="cls-1" points="59.13 43.01 61.69 43.01 61.69 41.79 59.13 41.79 59.13 39.92 61.84 39.92 61.84 38.67 57.63 38.67 57.63 46.41 62 46.41 62 45.17 59.13 45.17 59.13 43.01"/><path class="cls-1" d="M65.6,41.89c-1-.43-1.34-.68-1.34-1.24s.35-.85,1.15-.85a3,3,0,0,1,1.39.33l.31-1.22a3.79,3.79,0,0,0-1.67-.35c-1.69,0-2.7,1-2.7,2.25,0,1,.73,1.73,1.91,2.23.87.37,1.24.7,1.24,1.26s-.43,1-1.27,1a3.57,3.57,0,0,1-1.69-.44l-.29,1.25a4.21,4.21,0,0,0,1.92.44c1.82,0,2.85-1,2.85-2.34C67.41,43.16,66.85,42.45,65.6,41.89Z"/><path class="cls-1" d="M47.43,13.59c-.06.13.07.15.16.14s0,0,0-.07S47.51,13.44,47.43,13.59Z"/><polygon class="cls-1" points="51.72 14.66 51.72 14.56 51.69 14.56 51.72 14.66"/><path class="cls-1" d="M51.62,14.76c0,.09,0,.15-.1.2a.29.29,0,0,0,.17-.17S51.64,14.78,51.62,14.76Z"/><path class="cls-1" d="M63.08,20.16a22.17,22.17,0,0,1,2.09-1.82l-.23-.08a.34.34,0,0,1-.31.15.46.46,0,0,1-.19.39c-.15,0-.24-.13-.39-.11s0,.23,0,.35-.2.1-.3.15-.32.17-.23.35C63.13,19.66,63.27,20,63.08,20.16Z"/><path class="cls-1" d="M63.08,20.35c-.17-.25-.44.12-.63.24s-.61.11-.69.46l.11-.15c.22.11.41-.06.58-.16C62.5,20.37,62.91,20.58,63.08,20.35Z"/><path class="cls-1" d="M47.69,30.39l.06,0Z"/><path class="cls-1" d="M68.78,15.61c-.14.06-.19-.1-.27-.17-.38-.3.19-.42.24-.69a2,2,0,0,0,.69-1c-.28.3-.68.47-.86.89-.22,0-.33.34-.5.51.11.16-.21.28,0,.47-.06.09-.16.07-.24.07s.16.05.12.15-.17.07-.27.09-.08.13-.12.19-.4,0-.51.3a.12.12,0,0,1-.22-.08,1.22,1.22,0,0,0-.24.32c-.44.27-.88.54-1.31.82-.09,0-.16,0-.2.07-.19.09-.33-.17-.43-.07l-.08-.09s.09-.05.08-.11l-.12.11c-.07-.07-.22,0-.23-.15h-.16c-.07.05,0,.17-.07.24s.1.07.15.11,0,.11-.08.16c-.54-.16-.39.44-.77.58l-.08-.08c-.19.13-.19-.17-.34-.23s.07-.13.1-.2a.69.69,0,0,1,.51.05v-.09c-.14-.09.18-.18,0-.27-.06-.26.28-.34.39-.46s.29-.15.34-.32.27-.12.39-.22l0-.17c.08-.18.19,0,.31,0s-.05,0,0-.08a.17.17,0,0,1,.19-.08c.11-.09.36-.21.3-.39-.15,0-.21.2-.34.24-.34.4-1,.15-1.21.66-.18,0-.26.22-.46.15,0,0-.09-.05-.08-.11a.21.21,0,0,1,.2-.08c0-.09-.09-.28,0-.35,0-.26-.31-.12-.43-.27l0,.23a.17.17,0,0,1-.19.08c-.32.36-.94.08-1.2.5-.39.05-.25-.39-.39-.58.14-.1-.09-.21,0-.3s.42-.07.55-.17c-.1,0-.22,0-.24-.14.22,0,.12-.28.19-.4s.54,0,.78-.07v0a1.46,1.46,0,0,1,.66-.35.21.21,0,0,0,.08-.19h0a.31.31,0,0,1-.27-.12l.2-.19-.08-.08c.08-.19.27-.09.39-.19a1.46,1.46,0,0,1,1-.48c.12,0,.07.12,0,.16.22,0,.37-.19.54-.19L64.87,13l.46-.39c0-.08,0-.18-.07-.23s.32,0,.26-.23A.87.87,0,0,1,66,12c.44.37-.38.1-.15.51l.19,0c.15-.29.54-.3.73-.51.64-.18.8-.83,1.36-1.12l0,0,.11-.11c.46.14.48-.37.66-.58,0,0-.18,0-.22-.09l.31-.22c.22-.17.13-.5.15-.71s-.21,0-.31-.12.09-.11.16-.14c-.09-.15.19-.24.11-.44-.34-.2.19-.48-.15-.69-.08-.19-.28-.1-.32,0l-.07-.08c-.51,0,0-.38-.12-.63-.11.1-.23,0-.31-.07s-.09-.37.11-.34l0-.05a.33.33,0,0,1-.5-.27s.09-.12,0-.15c.17-.24-.29-.3-.2-.55.05-.1.14,0,.2-.11.09-.54.93-.35.81-1-.18-.06-.26.11-.39.17-.42.32-.37-.36-.69-.47L67.66,4l-.08-.09,0,0c-.1-.13-.26-.15-.19-.34a.73.73,0,0,1,.7-.24c0-.5.64-.16.65-.62,0,0-.07.05-.12.08-.31,0-.81.38-.89-.19,0-.32.33-.3.47-.51-.15.13-.41,0-.5.23-.26-.14-.5.3-.63-.08l.2-.11s-.09,0-.12,0-.15,0-.23,0-.1-.06-.07-.11a5.16,5.16,0,0,1,.61-.43c-.14-.08-.2.14-.31,0s-.11-.12-.15,0-.36.08-.43-.12,0-.13.08-.2c0-.34.5-.58.74-.77L67,0c-.31-.07-.46.24-.77.19-.12.1-.38.09-.35.32a.26.26,0,0,1-.27.1c-.12.3-.38-.09-.5.2a9.59,9.59,0,0,1-1.24.43v0c-.1,0-.21.22-.28,0-.4.3-.9.36-1.28.7-.49,0-.76.59-1.28.54-.39.22-.41.78-.89.75-.27.38-.81.35-1.12.61l0,0c0,.09-.14.19,0,.27l-.12.12a.82.82,0,0,1-.12.51c-.14.12-.17.35-.39.39a1.79,1.79,0,0,1-.43.58A2.09,2.09,0,0,1,56.87,7c-.18.16-.25.32-.46.39h.07c.07.27-.36.25-.51.46-.36-.18-.21.5-.57.32v0c0,.05-.08,0-.13,0a.49.49,0,0,0-.15.27c-.07.06-.12.18-.23.15-.35.62-1.14.85-1.63,1.36-.08.1-.25,0-.31.12-.07-.1-.26,0-.27-.12-.34.12-.32.42-.59.63-.91.38-1.6,1.3-2.64,1.4-.11.07-.25.2-.38.15s0-.06,0-.08a1,1,0,0,0-.66.39c.06,0,.13,0,.15,0-.14.16-.36.19-.5.28h.19c.25.07,0,.34.2.42a.41.41,0,0,1-.27.16c-.35.43-.9.38-1.39.43l-.12-.13c-.31.15-.64-.09-.94.09a1.79,1.79,0,0,0-1,0,23.08,23.08,0,0,0-3.41.89c-.21.07-.43.27-.66.19-.26.25-.63.23-.93.39-.17-.18-.36.11-.54.12s-.57-.08-.74.15c-.3,0-.61.16-.85,0s-.21.05-.32.07-.45.2-.7.07a.91.91,0,0,1-.66-.26,1,1,0,0,1,.9-.16c.16-.25.42,0,.62,0,0,0,.05-.08.08-.12a.18.18,0,0,1,.19.08l0,0A4.23,4.23,0,0,1,39.07,15l0,0c.23-.09.52-.11.66-.31-.18,0-.55-.08-.66.16-.55,0-1.05.19-1.59.12v0c-.31,0-.77.3-1-.08-.17,0-.39-.09-.47.12-.2-.19-.4.22-.55-.07,0-.1.1-.12.08-.2-.28-.33-.67.15-.93-.12-.1,0-.16.06-.24.12a7.84,7.84,0,0,0-.88-.16l.08.08c0,.05,0,.09-.05.11s.22.06.27.2,0,.12,0,.16a12.09,12.09,0,0,1-3.54-.31c-.32.15-.41-.27-.73-.24a3.93,3.93,0,0,1-.82.08,1.57,1.57,0,0,1-.7.11c-.33.17-.41,0-.73.2-.21-.17-.5.17-.73,0-.26.13-.54-.14-.78.07-.88-.13-1.75.09-2.64,0l-.07.07c-.42-.12-.91-.06-1.33-.19-.21.09-.37-.16-.61-.08s-.54-.26-.78-.11c-.12-.07-.27-.05-.36-.2a.5.5,0,0,1,.12-.39s-.05,0-.07,0,0,.18-.12.23l-.08-.08c-.13.46-.43,0-.65,0a.6.6,0,0,1-.55-.19l0,0c-.16,0-.25-.2-.43-.19l.05,0L18,14c-.12-.21-.38-.08-.5-.24a1.64,1.64,0,0,1-.71-.43l-.12,0c-.09,0-.23-.06-.26-.19s.07,0,.11-.05l-.11-.1c.07-.19.18,0,.31,0-.1,0-.24-.15-.24-.27s-.13-.21-.27-.16c-.2.25-.37-.11-.5-.19l.15-.15a1.36,1.36,0,0,0-.47-.08c-.16-.1-.15-.26-.22-.39-.15.15-.45,0-.51.27-.2,0-.45-.07-.51-.27-.18.06-.28-.08-.38-.19l.07-.08c-.05,0-.07.05-.11.08l-.16-.16c0-.07,0-.11.08-.15s0-.06-.08-.05-.18,0-.27-.07l.08-.08c-.07-.09-.23,0-.27-.11l0,0,0,0c-.06,0-.13,0-.15,0a2,2,0,0,1-.51-.35c-.2-.11-.52-.18-.55-.46A8.59,8.59,0,0,1,10.78,9c-.24,0-.4-.3-.62-.38l.23.24c-.14.19-.4-.06-.54.11-.09,0-.3-.18-.27-.35s-.18,0-.27,0c.09.13.29.21.39.34-.08,0,0,.11,0,.17s-.24,0-.38,0C9,9,8.66,9,8.49,8.58c.07-.06.12-.13.2-.15l-.12,0C8.46,8.16,8.2,8.29,8,8c.1-.16-.08-.44.19-.54s.29.06.42.15c.32-.33.41.36.75.24-.28-.18-.49-.53-.78-.67.09-.13,0-.34.08-.47-.28-.17.24-.24,0-.41a.18.18,0,0,0-.19.07c-.19-.08-.11.31-.35.39a1.23,1.23,0,0,0-.82.27c.14.11.39-.08.48.15-.1.18.2.3.15.51s-.15,0-.24,0v.12c0,.09-.14.06-.22.07.31.34-.31.2-.27.5,0,.1,0,.37,0,.43L7,8.77a.28.28,0,0,0-.23.12c-.28-.39-.73-.64-.94-1.12L6,7.65c0-.22-.26-.15-.24-.39A.69.69,0,0,1,6,7.11s0-.06,0-.09c-.13-.3-.64-.44-.47-.77L5.31,6.1c.16-.24.4-.27.59-.46s.32.06.5.07a1.49,1.49,0,0,0-.47-.43c-.17,0-.35-.15-.5-.11s-.36,0-.36-.19.08-.05.13-.05a.52.52,0,0,0,.07-.58c0,.11-.12.17-.15.27-.32,0-.15-.3-.27-.5,0,0,0,0-.09,0l.12.15-.19.16c-.2-.13-.46-.07-.66-.19s-.22-.36-.35-.12c-.43-.07-.2-.81-.81-.58-.23.14-.05.48-.16.62.42.42-.25.69-.27,1.08-.08.15-.14.33-.35.31a1,1,0,0,0-.27.9c-.24.15.1.21.12.34-.34.23-.43.61-.7.9-.14.13,0,.43-.24.46a.78.78,0,0,0,.05.31c-.19.14,0,.33-.05.46s.06.37-.12.47a2.73,2.73,0,0,1-.34,1h0s.1.09.08.16-.05.06-.08,0c-.1.14-.28.2-.39.36l.11.15c0,.08-.13.07-.19.12s0,.18.08.23c-.13.33.5.53.11.78,0,.11.1.19,0,.27a.2.2,0,0,0,0,.23.22.22,0,0,0,.27,0c.07,0,.07.11.12.16,0,.26.39.57.05.73.29.11,0-.34.34-.19s0,.43.12.7c.08,0,.12-.15.19-.05s.16.27,0,.36c0,.06,0,.15,0,.19s.08,0,.12,0c.08.26-.13.53-.28.7,0,.39-.38.73-.66,1,.34.2-.1.41-.11.59a.35.35,0,0,1-.2-.05L.42,17c0,.24-.28.11-.31.31.21.14-.08.22-.11.35.16,0,.27.06.42.05-.09,0-.13-.12-.19-.17s.12-.1.16-.23a1.18,1.18,0,0,1,1-.58c.17.08,0,.21,0,.31a.31.31,0,0,0,.15-.08l0,0c0-.37.25,0,.43-.05l-.12-.12a1.27,1.27,0,0,0,.27-.34c.22,0,.16.22.35.31,0,.18-.2.13-.31.2,0,.13-.07.2,0,.34s.23-.09.34-.05l0,0s0-.09,0-.11c.22-.12.41,0,.58.15-.06,0-.09.16-.19.12s0,.09,0,.11.12,0,.16.08-.17,0-.16.16a.12.12,0,0,1-.19,0c0,.12.09.2.11.31s-.31,0-.46,0-.52,0-.58-.19c-.13,0-.26.15-.39,0,0,0,0,.06,0,.08h0s0,.07,0,.12c.19.14.31-.09.48-.12a1,1,0,0,1,.19.43l.23,0c.09.08.19.17.16.31s-.1.12-.16.12v.15c.1.15-.08.32.07.43a1.17,1.17,0,0,0-.3.61c-.25.05,0,.34-.19.44a1.83,1.83,0,0,0,.38.23c.22.08.34.29.5.39a4.41,4.41,0,0,1,.74.3,1.3,1.3,0,0,0,.74.24c.25.26.72.36.77.77.1.09.2,0,.27-.07a1.06,1.06,0,0,1,.43.46c-.06.06-.18,0-.19.15.17.08.44,0,.51.24.08,0,.18,0,.22-.07.07.12.21.11.2.26l.11-.15c.24.05.52,0,.63.31L7,23.47c.21,0,.39.11.59,0a.63.63,0,0,1,.34.3c.43.21.75.72,1.12,1a1.69,1.69,0,0,0,1.06.51c.25.48.77,0,1,.39l-.16.16c.37.2.81.23,1.17.42.09.17.34.14.35.35.09,0,.13.05.19.08l-.07.12c.21-.1.23.13.27.22s.29.17.42.05c.16.06,0,.26.12.34s.09-.19.23-.15.14.28.2.42c.17-.12.4.1.54-.07.15.2.44.06.58.27s-.16.13-.12.23.41-.09.51.12l-.12.12a.42.42,0,0,1,.24.23l.23-.2a.27.27,0,0,1,.11.27H16c.16.1.15.26.2.39s.16-.1.24,0l.07-.07,0,0c0-.12,0-.17.11-.23s.17,0,.23,0,0-.25.15-.31.09.05.12.07c0,.37.3-.14.44.2,0,0,0,.05-.05.07s.15,0,.2,0c.08.14.39.11.31.3l0,0s.05,0,.08,0l0,0a.27.27,0,0,1,.39.16c0,.17.27.17.39.27.1.31.59,0,.74.39.08,0,.18.14.27,0,.29.64,1.09.44,1.31,1.08.5,0,.79.47,1.29.44l.46-.36a.38.38,0,0,0,.35-.12c.44.08,1,0,1.29.39.11,0,.28,0,.38,0,.15.28.51.09.69.32.36,0,.49-.25.75-.47a.17.17,0,0,1,.07-.19c.13-.22.26,0,.39.07s.54,0,.7.12c0,0-.06.07-.1.08h.13c.05,0,.11.07.08.15s-.22.11-.35.11v.16c.14.11.25-.09.39-.08s.09.21.24.16c.17.26.47,0,.69.11.1-.08,0-.25.12-.3a2.37,2.37,0,0,1,.7.15c-.06.15-.23,0-.31.12s.08.1.16.07c.13-.29.28.06.46,0,.11.25.36,0,.51.12s.09.08.07.15h.31c.05.08.19.12.16.24.41-.21.71.26,1.08,0,.15.15.49,0,.62.12.44-.09.68.29,1.09.27a2,2,0,0,1,1.55.12c.24-.24.42.1.7,0,.34.29.6-.24,1,0,.17-.21.32,0,.51,0,.47-.14,1,.13,1.43-.08a7.11,7.11,0,0,0,2.52.12c.27-.68.89,0,1.36-.12.18.12.58-.1.62.2l.59.15c.12-.15.18,0,.34,0a1.17,1.17,0,0,1,.31-.17c0,.12.23.08.15.24.36,0,.59,0,.94,0,.23-.28.58.09.78-.31-.1-.1-.33-.11-.28-.31.06,0,.11-.11.19-.08s.44.25.63.12c.29.19.42-.17.71-.1-.08,0,0-.19,0-.25a1.07,1.07,0,0,1-.5-.35c.09,0,0-.14.11-.2a10,10,0,0,0,1.55-.38c.12-.28.46-.18.67-.31-.09-.12.05-.35-.16-.43,0-.14.16-.15.19-.19a.35.35,0,0,1-.31-.12c0-.34.38,0,.47-.23a.92.92,0,0,0,.62-.15c.52,0,.87-.45,1.43-.35.19.15.42-.11.58-.12.2-.24.52-.14.75-.27-.44-.08-.83.3-1.17.11.05,0,0-.07,0-.11s.09-.16.19-.12c.31,0,.54-.16.9-.16.23-.24.65-.14.85-.39.41,0,.7-.47,1.13-.19,0-.14.2-.17.31-.27-.26-.15.17-.19-.09-.35-.06-.28.26-.37.39-.55.22,0,.34.2.55.17.15-.23.54-.39.66-.71.05.05.09.12.15.12,0-.32.32-.43.55-.62a4.17,4.17,0,0,1-.74.35l0,0c-.07-.17.12-.24.2-.34.36-.05.55-.54.93-.55a5.7,5.7,0,0,0,1.35-1c.37-.14.47-.41.82-.58.21.08.15-.23.35-.19a9.26,9.26,0,0,0,1.35-1.13c-.07,0-.1,0-.15.08-.33-.16-.57.12-.85.2-.1-.13-.22-.15-.31-.28l.39-.38c.49-.05.46-.72.92-.78.18.09.17.26.17.42-.24.08-.17.46-.24.43h.15c.1.05.07.14.09.23s.19-.29.3-.08l0-.12s.07,0,.11,0,.09-.21.16-.31c.27-.12.49-.19.62-.51.54-.17.79-.86,1.32-1.09,0,0,.06.1.11.09-.27-.4.59-.4.35-.82.07-.18.18,0,.31,0v0c-.11,0-.11-.07-.15-.11a.63.63,0,0,1,.42-.24c-.25-.26.27-.1.24-.3l-.12,0c-.38,0-.21.44-.54.46-.21.33-.28-.12-.51-.08s-.11.22-.11.35c-.2,0-.34.36-.54.24v0s-.08,0-.12,0-.25,0-.27-.12a2.68,2.68,0,0,1,.58-.42.53.53,0,0,1,.27-.35c.44.05.19-.49.54-.58.44.28.55-.33.89-.31-.17,0-.32.09-.38-.12.32-.25.6-.6,1-.65a.34.34,0,0,0,.27-.28l.12,0v0s.07-.1.15-.08.14-.32.27-.46c.16-.36.34,0,.55,0a.26.26,0,0,1,.07-.16l.7-.34a1.79,1.79,0,0,0,.42-.67C68.88,15.45,68.84,15.55,68.78,15.61Zm-33,2.13L36,18c-.22.11-.48.08-.66.27-.19-.06-.39.11-.55-.12,0,.05-.06,0-.12,0s0-.12,0-.19,0-.06,0-.08c-.33,0-.43.41-.74.35-.1-.06-.15.11-.23,0v-.12c.12,0,.24.12.27-.08-.23,0-.4-.26-.58,0h-.15l0-.31c-.35-.12-.7.1-1.05,0-.27.21-.56-.1-.85,0l-.46-.23c-.14.12-.13-.05-.24-.07s0,.09,0,.15h-.15c0-.18-.24-.13-.35-.2S29.8,17,29.52,17l-.35-.39c.14,0,0-.21.11-.27s.13-.24.12-.39c.3-.24.36-.72.85-.58.52-.4,1.16.13,1.67-.16.71.24,1.62,0,2.18.55.27,0,.61-.1.81.12-.09.1-.23-.07-.39,0-.39.36-.84,0-1.27.19l0,0c-.35.05-.77.08-1.16.12,0,0,.1.07.07.12s-.2,0-.27.15c.15.11-.12.28.12.31a8.32,8.32,0,0,1,1.59.05l0-.05.24.2A2.55,2.55,0,0,1,35,17a1.23,1.23,0,0,1,.66,0l-.24.12a.08.08,0,0,0,.08,0c0,.1-.37.12-.11.27a.18.18,0,0,1,.19.09c.08,0,.25-.06.35,0a.47.47,0,0,1,.31-.08Zm17.37-5c-.38,0-.61.41-1,.43-.27.26-.7.28-1,.42-.14.12-.28.36-.51.31,0,0-.07,0-.11,0l-.08.16c-.06-.05-.15,0-.23,0l0,0c0-.05-.07,0-.11,0-.1.25-.38.09-.44.35s-.87-.14-.73.42c.18.12,0,.26,0,.43s-.17-.09-.27,0l.08.08c-.07.26-.3.21-.5.28-.27.24-.58,0-.89.14-.07-.06-.18,0-.27,0s-.26.07-.36.2c.06,0,.05.06.05.1a2.67,2.67,0,0,1-1.4.2c.13,0,.27-.08.35-.23s-.18,0-.28,0l-.07.07A.26.26,0,0,0,45,16c-.08,0-.16.15-.24.05-.32.31-.75.05-1.08.34-.14.19-.44.13-.66.2-.36.36-.75-.05-1.17.19-.06,0,0-.1,0-.15s0,0,.07,0a.49.49,0,0,0,.39-.11c-.29-.22-.7-.2-.93-.48-.3.06-.45-.23-.74-.19-.1,0-.07-.14-.07-.22.41.12.23-.38.62-.32.44-.32,1-.3,1.47-.62a3.23,3.23,0,0,1,1.09-.27c.51-.08,1-.46,1.51-.32.07.11.14,0,.23,0a.79.79,0,0,0,.46.17.57.57,0,0,1,.7-.24l.59.31c.32-.5,1,0,1.24-.46.36-.26.9-.11,1.24-.43l0,0c0-.25.24-.17.39-.12s.18-.13.26-.19v-.08c.46.17.88-.16,1.29-.31.17-.07.34-.25.5-.24.41,0,.71-.37,1.17-.3l0,0C53.37,12.45,53.38,12.69,53.14,12.77Z"/><path class="cls-1" d="M47.66,13.46Z"/><path class="cls-1" d="M2.73,40.51a5.34,5.34,0,0,1,1.44.8l-.75,1.06A5.07,5.07,0,0,0,2,41.47Zm7.54,3H9.54c0,.24,0,.47,0,.67h.72v1.11H9.38c-.19,1.22-.72,1.29-2.06,1.26A2.48,2.48,0,0,0,7,45.52c.35,0,.64,0,.82,0a.35.35,0,0,0,.34-.24h-2l-.06.44-1.19-.08c.11-.59.21-1.35.3-2.14H4.36l.08.05c-.33,1-.69,1.92-1,2.63a.32.32,0,0,1,.09.21.37.37,0,0,1,0,.15l-1.27-.79a28.86,28.86,0,0,0,1.22-2.92l.93.66V42.36H5.3l.1-1.21A6.59,6.59,0,0,1,5,41.7a7.84,7.84,0,0,0-.9-.81A6.72,6.72,0,0,0,5.48,38l1.37.39q0,.14-.24.12L6.45,39h3.7v1.16H6l-.22.44H9l.64.06c0,.09,0,.24,0,.37,0,.48,0,.93-.05,1.33h.68ZM3.15,38.07a6,6,0,0,1,1.45.85l-.75,1A6.19,6.19,0,0,0,2.45,39Zm3.17,5.47-.07.67h.51c0-.21,0-.44.06-.67Zm.17-1.82-.06.64H6.9c0-.22,0-.43,0-.64Zm1.34,2.49h.52l.05-.67H7.88Zm.63-1.85v-.64H8l0,.64Z"/><path class="cls-1" d="M17.3,44.92c0,.28,0,.3.13.3h.2c.12,0,.15-.12.17-.92a3.58,3.58,0,0,0,1.09.48c-.11,1.26-.41,1.61-1.12,1.61h-.58c-1,0-1.14-.38-1.14-1.46v-1.5H14.2V41.65l-.14.14a5.53,5.53,0,0,0-.85-.82.93.93,0,0,0,.14-.14,4.32,4.32,0,0,0-.36-.49v6.25H11.8V41h0a4.79,4.79,0,0,1-.36,1.49l-.9-.5a5.89,5.89,0,0,0,.38-2.14l.89.12V38l1.44.08c0,.1-.08.15-.25.19v1.22l.33-.3c.2.19.43.46.63.69a7,7,0,0,0,.44-1.18l.84.3v-.8H17.6A3.94,3.94,0,0,0,19,40.66a6.3,6.3,0,0,0-.83,1.17l-.22-.21v1.81H17.3ZM16,43.72c0,.08-.08.14-.22.16A3.19,3.19,0,0,1,14,46.6a3.75,3.75,0,0,0-.74-1,2,2,0,0,0,1.3-2Zm1.06-3.4a4.92,4.92,0,0,1-.38-1H15.44a6,6,0,0,1-.39,1Zm-1.66,1.15v.82h1.29v-.82Z"/><path class="cls-1" d="M21,39.78V41.3a11.85,11.85,0,0,1-1,5.28,4.26,4.26,0,0,0-1-.73,10,10,0,0,0,.77-4.55V38.7h3V38l1.57.09c0,.1-.07.16-.26.19v.38h3v1.08H26.16c0,.08-.1.14-.25.17v.14h1.27v.75H25.91v.92H22.22v-.92h-1v-.75h1v-.31Zm5.7,5.49H25.53c.68.21,1.42.46,1.88.63l-1.15.71a18.4,18.4,0,0,0-2-.76l.71-.58H23.11l.72.57a.37.37,0,0,1-.15,0,11.72,11.72,0,0,1-2.19.72,7.85,7.85,0,0,0-.75-.8,11.52,11.52,0,0,0,1.81-.54H21.44V43h2v-.23H21.16V42h6.1v.81H24.62V43h2.1Zm-4.14-1.68v.26h.87v-.26Zm0,.82v.27h.87v-.27Zm2.1-4.32v-.31h-1c0,.08-.09.14-.25.17v.14Zm0,1v-.25H23.39v.25Zm.84,2.5h-.9v.26h.9Zm0,1.09v-.27h-.9v.27Z"/><path class="cls-1" d="M32.47,41.3h3.3v1.2H27.85V41.3h1.22a7.32,7.32,0,0,0-1-.55A7.29,7.29,0,0,0,29.27,38l1.47.41c0,.08-.12.13-.24.12-.05.19-.11.38-.18.58h.84V38l1.58.09c0,.1-.09.16-.27.19v.82H35v1.17H32.47ZM29,46.6V43H34.7v3.59H33.37v-.26H30.28v.29Zm2.15-6.29H29.84a7,7,0,0,1-.55,1h1.87Zm2.21,3.87H30.28v.92h3.09Z"/></g></g></svg>